<?xml version="1.0"?>
<svg xmlns="http://www.w3.org/2000/svg" id="Layer_1" data-name="Layer 1" viewBox="0 0 128 128" width="512" height="512"><title>RAFTING</title><path d="M116.658,98.7,101.845,83.891a1.738,1.738,0,0,0-1.095-.494V22.228a11.411,11.411,0,0,0-11.4-11.4H76.536A3.591,3.591,0,0,0,73.4,8.96H54.6a3.591,3.591,0,0,0-3.139,1.869H38.647A11.382,11.382,0,0,0,31.4,13.449L29.3,11.342a1.749,1.749,0,0,0-2.475,0l-15.48,15.48a1.749,1.749,0,0,0,0,2.475L26.155,44.109a1.741,1.741,0,0,0,1.095.5v61.164a11.411,11.411,0,0,0,11.4,11.4H51.464A3.591,3.591,0,0,0,54.6,119.04H73.4a3.591,3.591,0,0,0,3.139-1.869H89.353a11.381,11.381,0,0,0,7.244-2.62l2.107,2.107a1.749,1.749,0,0,0,2.475,0l15.48-15.48a1.749,1.749,0,0,0,0-2.475ZM97.25,22.228v62l-4.962,1.354-.538-.538V27.32a7.5,7.5,0,0,0-7.49-7.491H77v-5.5H89.353A7.907,7.907,0,0,1,97.25,22.228ZM83.891,101.845l2.315,2.315a3.985,3.985,0,0,1-1.947.512h-7.6a3.6,3.6,0,0,0-3.263-2.1H54.6a3.6,3.6,0,0,0-3.263,2.1h-7.6a4,4,0,0,1-3.99-3.991V85.625H78.921l6.663,6.663-2.145,7.858A1.75,1.75,0,0,0,83.891,101.845Zm-8.47-19.72H39.75V46.454Zm5.464.515-.005-.005L39.244,41l-.015-.015L36.135,37.89a1.241,1.241,0,0,1,1.755-1.755l9.225,9.225.005.005,41.64,41.64.005.005,3.1,3.1a1.241,1.241,0,0,1-1.755,1.755ZM44.109,26.155,41.8,23.85a3.956,3.956,0,0,1,1.936-.521h7.6a3.6,3.6,0,0,0,3.263,2.1H73.4a3.6,3.6,0,0,0,3.263-2.1h7.6a4,4,0,0,1,3.99,3.991V42.375H49.079l-6.663-6.663,2.145-7.858A1.75,1.75,0,0,0,44.109,26.155Zm8.47,19.72H88.25V81.546ZM54.5,12.563a.1.1,0,0,1,.1-.1H73.4a.1.1,0,0,1,.1.1v9.26a.1.1,0,0,1-.1.1H54.6a.1.1,0,0,1-.1-.1ZM38.647,14.329H51v5.5H43.74a7.444,7.444,0,0,0-4.469,1.488L33.885,15.93A7.9,7.9,0,0,1,38.647,14.329ZM15.054,28.06,28.06,15.054,40.916,27.912,39.526,33A4.727,4.727,0,0,0,33,39.526l-5.092,1.39Zm15.7,77.713v-62l4.962-1.354.538.538V100.68a7.5,7.5,0,0,0,7.49,7.491H51v5.5H38.647A7.907,7.907,0,0,1,30.75,105.772Zm42.75,9.664a.1.1,0,0,1-.1.1H54.6a.1.1,0,0,1-.1-.1v-9.26a.1.1,0,0,1,.1-.1H73.4a.1.1,0,0,1,.1.1Zm15.853-1.766H77v-5.5h7.258a7.475,7.475,0,0,0,4.468-1.49l5.388,5.389A7.892,7.892,0,0,1,89.353,113.671Zm10.588-.725-9.183-9.185a1.719,1.719,0,0,0-1.61-1.61l-2.063-2.063L88.474,95A4.727,4.727,0,0,0,95,88.474l5.092-1.39L112.946,99.94Z"/></svg>
