<svg id="Layer_1" height="512" viewBox="0 0 128 128" width="512" xmlns="http://www.w3.org/2000/svg" data-name="Layer 1"><path d="m111.873 24.978v-12.398a1.75 1.75 0 0 0 -1.75-1.75h-8.25a1.75 1.75 0 0 0 -1.75 1.75v12.32a3.935 3.935 0 0 0 -2.913 3.79v10.515a26.966 26.966 0 0 0 -20.625-9.574h-36.085a27.038 27.038 0 1 0 0 54.077h5.3v10.292a1.75 1.75 0 0 0 1.75 1.75h5.11v7.606a13.83 13.83 0 0 0 13.819 13.814h32.292a13.116 13.116 0 0 0 13.1-13.1v-44.048a3.933 3.933 0 0 0 2.671-3.712v-27.62a3.933 3.933 0 0 0 -2.669-3.712zm-10.723 31.772a.44.44 0 0 1 -.44-.44v-27.62a.44.44 0 0 1 .44-.44h9.45a.44.44 0 0 1 .44.44v27.62a.44.44 0 0 1 -.44.44zm-36.736 39h5.111a1.75 1.75 0 0 0 1.75-1.75v-10.292h5.31a27.132 27.132 0 0 0 23.538-13.777v32.514a2.979 2.979 0 0 1 -2.976 2.976h-30.193a2.542 2.542 0 0 1 -2.54-2.54zm-23.919-22.02c-.053 0-.1-.007-.157-.008l14.99-34.115h1.052l-14.994 34.123zm-7.613-1.815 14.2-32.308h4.427l-14.809 33.684a16.908 16.908 0 0 1 -3.818-1.375zm-9.449-15.246a17.081 17.081 0 0 1 17.062-17.062h2.76l-13.361 30.407a17.028 17.028 0 0 1 -6.461-13.345zm36.767-17.062h1.95l-13.35 30.393c-.021.048-.031.1-.047.146a12.74 12.74 0 0 0 -2.09 3.582h-1.454zm5.773 0h10.612a17.062 17.062 0 1 1 0 34.123h-6.165a12.67 12.67 0 0 0 -16.176-7.422zm42.4-25.278v10.421h-4.75v-10.42zm-67.873 65.879a23.538 23.538 0 1 1 0-47.077h36.09a23.507 23.507 0 0 1 20.62 12.225v10.954a3.933 3.933 0 0 0 2.654 3.706 23.611 23.611 0 0 1 -23.279 20.192h-5.31v-1.925c0-.355-.025-.7-.053-1.052h5.363a20.562 20.562 0 1 0 0-41.123h-36.09a20.541 20.541 0 0 0 -10.895 37.968 1.757 1.757 0 0 0 .178.108 20.392 20.392 0 0 0 7.612 2.786h.026a20.526 20.526 0 0 0 3.078.256h5.363c-.029.348-.053.7-.053 1.052v1.925zm8.8-1.925a9.236 9.236 0 1 1 18.471 0v13.967h-18.471zm49.471 35.387h-32.292a10.326 10.326 0 0 1 -10.315-10.314v-7.606h4.75v7.131a6.047 6.047 0 0 0 6.04 6.04h30.193a6.483 6.483 0 0 0 6.476-6.476v-42.195h4.75v43.819a9.613 9.613 0 0 1 -9.602 9.601z"/><path d="m58.725 74.24a1.75 1.75 0 1 0 -.37-3.48c-4.944.525-6.953 5.826-7.036 6.051a1.75 1.75 0 1 0 3.281 1.211c.015-.035 1.362-3.488 4.125-3.782z"/></svg>