<svg id="Layer_1" height="512" viewBox="0 0 128 128" width="512" xmlns="http://www.w3.org/2000/svg" data-name="Layer 1"><path d="m91.308 12.752a5.842 5.842 0 0 0 -4.328-1.923h-45.96a5.832 5.832 0 0 0 -5.8 6.424l2.374 23.275a1.74 1.74 0 0 0 -1.67 1.877l2.476 32.026a1.749 1.749 0 0 0 1.745 1.615h1.071l1.534 15.041v24.334a1.75 1.75 0 0 0 1.75 1.75h39a1.75 1.75 0 0 0 1.75-1.75v-24.334l1.535-15.041h.608a1.75 1.75 0 0 0 1.743-1.59l2.94-32.025a1.739 1.739 0 0 0 -1.668-1.9l2.375-23.275a5.843 5.843 0 0 0 -1.475-4.504zm-2.6 2.346a2.308 2.308 0 0 1 .59 1.8l-.164 1.6h-4.103v-4.169h1.949a2.307 2.307 0 0 1 1.731.771zm-47.598 25.423-1.89-18.521h49.56l-1.89 18.521zm36.209-22.021v-4.171h4.212v4.171zm-3.5 0h-4.213v-4.171h4.212zm-7.712 0h-4.213v-4.171h4.213zm-7.713 0h-4.213v-4.171h4.212zm-7.712 0h-4.213v-4.171h4.212zm-11.393-3.4a2.307 2.307 0 0 1 1.73-.769h1.949v4.169h-4.105l-.163-1.6a2.306 2.306 0 0 1 .589-1.8zm17.95 98.573a6.984 6.984 0 0 1 13.521 0zm24.511 0h-7.425a10.47 10.47 0 0 0 -20.649 0h-7.426v-20.923h35.5zm.169-24.421h-35.838l-1.347-13.2h38.533zm3.877-16.7h-44.032l-2.207-28.531h48.859z"/><path d="m53.05 60.033h2.44a8.636 8.636 0 0 0 1.26 3.025l-1.73 1.73a1.75 1.75 0 1 0 2.475 2.475l1.73-1.73a8.636 8.636 0 0 0 3.025 1.261v2.439a1.75 1.75 0 0 0 3.5 0v-2.439a8.636 8.636 0 0 0 3.025-1.261l1.73 1.73a1.75 1.75 0 0 0 2.475-2.475l-1.73-1.73a8.636 8.636 0 0 0 1.26-3.025h2.44a1.75 1.75 0 0 0 0-3.5h-2.44a8.635 8.635 0 0 0 -1.261-3.025l1.73-1.73a1.75 1.75 0 0 0 -2.474-2.478l-1.731 1.731a8.634 8.634 0 0 0 -3.025-1.26v-2.44a1.75 1.75 0 0 0 -3.5 0v2.44a8.634 8.634 0 0 0 -3.025 1.26l-1.729-1.731a1.75 1.75 0 0 0 -2.475 2.475l1.73 1.73a8.635 8.635 0 0 0 -1.261 3.025h-2.439a1.75 1.75 0 0 0 0 3.5zm10.95-6.933a5.188 5.188 0 1 1 -5.188 5.188 5.193 5.193 0 0 1 5.188-5.188z"/></svg>