<svg id="Layer_1" height="512" viewBox="0 0 128 128" width="512" xmlns="http://www.w3.org/2000/svg" data-name="Layer 1"><path d="m117.153 72.9c0-.013 0-.029 0-.041-.154-1.135-3.847-27.969-9.636-41.7a15.608 15.608 0 0 0 -10.324-9.059 23.76 23.76 0 0 0 -8.62-.512 9.2 9.2 0 0 0 -4.565 1.712 8.192 8.192 0 0 0 -2.4 2.813 1.75 1.75 0 1 0 3.111 1.6 4.7 4.7 0 0 1 1.388-1.613 5.832 5.832 0 0 1 2.854-1.035 20.251 20.251 0 0 1 7.351.421 12.087 12.087 0 0 1 7.982 7.033c4.654 11.036 8.023 31.653 9.057 38.513-28.022-3.8-44 2.423-46.651 3.576h-5.4c-2.65-1.153-18.629-7.373-46.651-3.576 1.034-6.86 4.4-27.474 9.057-38.513a12.087 12.087 0 0 1 7.982-7.033 20.253 20.253 0 0 1 7.351-.421 5.832 5.832 0 0 1 2.854 1.035 4.7 4.7 0 0 1 1.385 1.615 1.75 1.75 0 1 0 3.111-1.6 8.192 8.192 0 0 0 -2.4-2.813 9.2 9.2 0 0 0 -4.565-1.712 23.76 23.76 0 0 0 -8.62.512 15.608 15.608 0 0 0 -10.326 9.06c-5.787 13.73-9.478 40.563-9.633 41.698v.072c-.005.055-.015.108-.015.164v3.982a1.778 1.778 0 0 0 .9 1.531 4.221 4.221 0 0 1 2.046 3.491 1.751 1.751 0 0 0 1.441 1.723l3.106.557a1.788 1.788 0 0 0 .183.016l.989 8.829a15.433 15.433 0 0 0 5.543 10.322c.023.02.045.041.069.06a13.39 13.39 0 0 0 8.378 2.979h8.37c7.752 0 14.14-6.274 14.857-14.6l.69-8.016a6.9 6.9 0 0 0 0-.835l2.7-.088a1.751 1.751 0 0 0 1.589-1.155 19.234 19.234 0 0 0 .91-3.782h2.799a19.236 19.236 0 0 0 .91 3.782 1.751 1.751 0 0 0 1.589 1.155l2.7.088a6.9 6.9 0 0 0 0 .835l.69 8.016c.718 8.321 7.105 14.6 14.857 14.6h8.37c7.122 0 13.136-5.744 13.989-13.362l.989-8.829a1.788 1.788 0 0 0 .183-.016l3.106-.557a1.751 1.751 0 0 0 1.441-1.723 4.218 4.218 0 0 1 2.029-3.478 1.75 1.75 0 0 0 .918-1.54v-3.981a1.733 1.733 0 0 0 -.018-.2zm-94.178 19.932-1.054-9.407a4.716 4.716 0 0 1 1-3.5 3.773 3.773 0 0 1 2.594-1.411c2.173-.187 4.22-.287 6.163-.327l-6.294 20.713a12.237 12.237 0 0 1 -2.409-6.068zm18.658 10.251h-1.407l7.193-23.683q.693.134 1.323.271zm-5.065 0h-1.731l7.429-24.457c.576.064 1.13.133 1.668.206zm-5.307-.271a9.964 9.964 0 0 1 -3.018-1.277l7.093-23.352c1.169.025 2.3.068 3.365.135zm22.656-19.141-.69 8.016a12.346 12.346 0 0 1 -7.736 10.738l6.644-21.875a3.018 3.018 0 0 1 1.782 3.121zm4.826-4.08-2.4.079a6.063 6.063 0 0 0 -3.362-2.536c-4.435-1.3-13.936-3.3-27.764-2.109a7.243 7.243 0 0 0 -5 2.68 8.044 8.044 0 0 0 -1.569 3.173l-1.517-.272a7.725 7.725 0 0 0 -2.8-4.437v-1.561c25.342-3.57 40.843 1.392 44.819 2.914a13.856 13.856 0 0 1 -.407 2.069zm16.03 12.1-.69-8.016a3.018 3.018 0 0 1 1.783-3.12l6.644 21.875a12.346 12.346 0 0 1 -7.737-10.743zm17.89-13.511 7.094 23.356a9.964 9.964 0 0 1 -3.018 1.277l-7.439-24.492c1.071-.067 2.19-.121 3.363-.141zm-6.929.447 7.429 24.456h-1.73l-7.366-24.251c.533-.072 1.091-.141 1.667-.205zm-5.154.774 7.193 23.682h-1.405l-7.11-23.411c.418-.091.861-.182 1.323-.272zm25.5 4.024-1.054 9.407a12.237 12.237 0 0 1 -2.409 6.07l-6.295-20.722c1.94.041 4 .146 6.164.333a3.773 3.773 0 0 1 2.594 1.411 4.716 4.716 0 0 1 .999 3.501zm4.793-2.819-1.517.272a8.044 8.044 0 0 0 -1.569-3.173 7.243 7.243 0 0 0 -5-2.68c-13.829-1.192-23.33.809-27.764 2.109a6.063 6.063 0 0 0 -3.362 2.536l-2.4-.079a13.907 13.907 0 0 1 -.408-2.072c3.967-1.529 19.4-6.5 44.822-2.911v1.561a7.725 7.725 0 0 0 -2.803 4.436z"/></svg>