<svg id="Layer_1" height="512" viewBox="0 0 128 128" width="512" xmlns="http://www.w3.org/2000/svg" data-name="Layer 1"><path d="m116.891 99.606c-.272-.422-27.558-42.476-51.52-66.438-24.403-24.402-51.725-22.368-52.879-22.268a1.749 1.749 0 0 0 -1.492 1.142 1.724 1.724 0 0 0 -.074.353.51.51 0 0 0 -.025.1v.038c-.122 1.49-1.967 28.6 22.273 52.84 23.963 23.962 66.017 51.247 66.438 51.52a1.751 1.751 0 0 0 2.536-.729l4.46-9.558 9.558-4.46a1.751 1.751 0 0 0 .729-2.536zm-17.065 13.243c-8.061-5.327-43.194-28.964-64.183-49.949-17.817-17.822-20.816-37.649-21.243-46.021l62.432 62.427 14.023 20.294a1.751 1.751 0 0 0 1.281.748c.053 0 .105.007.158.007a1.747 1.747 0 0 0 1.237-.513l1.916-1.916 7.734 7.734zm-7.285-16.969-7.472-10.811 10.811 7.472zm13.116 7.3-7.734-7.733 1.916-1.916a1.749 1.749 0 0 0 -.242-2.677l-20.291-14.022-62.438-62.438c8.364.411 28.173 3.395 46.028 21.249 20.983 20.984 44.625 56.121 49.952 64.184z"/></svg>