<svg id="Layer_1" height="512" viewBox="0 0 128 128" width="512" xmlns="http://www.w3.org/2000/svg" data-name="Layer 1"><path d="m92.962 87.5-8.744-1.01a9.922 9.922 0 0 1 -8.511-7.48 23.929 23.929 0 0 0 12.21-20.844v-2.438a8.33 8.33 0 0 0 0-16.29v-6.1a22.529 22.529 0 0 0 -22.5-22.5h-2.83a22.529 22.529 0 0 0 -22.5 22.5v6.1a8.33 8.33 0 0 0 0 16.29v2.438a23.929 23.929 0 0 0 12.21 20.844 9.922 9.922 0 0 1 -8.511 7.48l-8.748 1.01a15.91 15.91 0 0 0 -15.788 15.891v12.029a1.75 1.75 0 0 0 3.5 0v-12.029a12.405 12.405 0 0 1 12.391-12.391 1.722 1.722 0 0 0 .2-.012l8.841-1.021a13.408 13.408 0 0 0 11.325-9.447 23.849 23.849 0 0 0 16.987 0 13.408 13.408 0 0 0 11.323 9.447l8.841 1.021a1.722 1.722 0 0 0 .2.012 12.405 12.405 0 0 1 12.391 12.391v12.029a1.75 1.75 0 0 0 3.5 0v-12.029a15.91 15.91 0 0 0 -15.787-15.891zm-49.379-52.417h40.834v4.167h-40.834zm21.768 8.4h-2.7a8.165 8.165 0 0 0 -.532-.731h3.766a8.165 8.165 0 0 0 -.534.729zm15.008-.731h4.058v.731h-3.526a8.165 8.165 0 0 0 -.532-.733zm-36.775 0h4.058a8.165 8.165 0 0 0 -.532.731h-3.527zm0 4.231h2.329c-.016.2-.034.4-.034.6s.017.4.034.6h-2.33zm6.17 2.282-.008-.019a4.022 4.022 0 0 1 -.366-1.66c0-2.573 2.467-4.667 5.5-4.667s5.5 2.094 5.5 4.667a4.023 4.023 0 0 1 -.37 1.669 5.89 5.89 0 0 1 -10.254.008zm14.092-2.282h.309c-.016.2-.034.4-.034.6s.017.4.034.6h-.309c.016-.2.034-.4.034-.6s-.019-.402-.035-.602zm4.154 2.284-.012-.028a3.946 3.946 0 0 1 0-3.309l.012-.03a5.558 5.558 0 0 1 5.122-2.98c3.033 0 5.5 2.094 5.5 4.667s-2.467 4.667-5.5 4.667a5.557 5.557 0 0 1 -5.122-2.987zm14.09-2.286h2.329v1.2h-2.331c.016-.2.034-.4.034-.6s-.022-.4-.035-.6zm8.913.6a4.831 4.831 0 0 1 -3.083 4.493v-8.984a4.832 4.832 0 0 1 3.08 4.493zm-28.416-33.251h2.825a19.029 19.029 0 0 1 18.924 17.253h-40.672a19.029 19.029 0 0 1 18.923-17.253zm-25.587 33.253a4.832 4.832 0 0 1 3.083-4.493v8.986a4.831 4.831 0 0 1 -3.083-4.493zm6.583 10.583v-6.481h3.526a9.458 9.458 0 0 0 15.54 0h2.7a9.458 9.458 0 0 0 15.54 0h3.526v6.481a20.417 20.417 0 1 1 -40.833 0z"/><path d="m69 62.25a1.75 1.75 0 0 0 -1.75 1.75 3.25 3.25 0 0 1 -6.5 0 1.75 1.75 0 0 0 -3.5 0 6.75 6.75 0 0 0 13.5 0 1.75 1.75 0 0 0 -1.75-1.75z"/><path d="m89.458 100.583a1.75 1.75 0 0 0 -1.75 1.75v13.087a1.75 1.75 0 0 0 3.5 0v-13.087a1.75 1.75 0 0 0 -1.75-1.75z"/><path d="m38.542 100.583a1.75 1.75 0 0 0 -1.75 1.75v13.087a1.75 1.75 0 0 0 3.5 0v-13.087a1.75 1.75 0 0 0 -1.75-1.75z"/><path d="m48.444 112a2.344 2.344 0 1 0 2.344 2.344 2.346 2.346 0 0 0 -2.344-2.344z"/><path d="m79.556 112a2.344 2.344 0 1 0 2.344 2.344 2.346 2.346 0 0 0 -2.344-2.344z"/></svg>