<?xml version="1.0"?>
<svg xmlns="http://www.w3.org/2000/svg" id="Layer_1" data-name="Layer 1" viewBox="0 0 128 128" width="512" height="512"><title>SWIMMING POOL</title><path d="M22.274,85.631A11.487,11.487,0,0,0,30.619,82a11.487,11.487,0,0,0,8.346,3.63,11.236,11.236,0,0,0,1.491-.111,1.736,1.736,0,0,0,.375-.06A11.517,11.517,0,0,0,47.31,82,11.407,11.407,0,0,0,64,82a11.487,11.487,0,0,0,8.345,3.63,11.237,11.237,0,0,0,1.419-.1,1.741,1.741,0,0,0,.352-.056A11.515,11.515,0,0,0,80.69,82a11.407,11.407,0,0,0,16.69,0,11.433,11.433,0,0,0,19.79-7.814,1.75,1.75,0,0,0-3.5,0,7.938,7.938,0,0,1-14.783,4.027,1.75,1.75,0,0,0-3.014,0,7.908,7.908,0,0,1-13.458.32V29.585a4.153,4.153,0,0,1,4.148-4.147h4.613a5.25,5.25,0,0,0,0-10.5H86.564A14.665,14.665,0,0,0,71.916,29.585v8.939H49.125V29.585a4.152,4.152,0,0,1,4.147-4.147h4.614a5.25,5.25,0,0,0,0-10.5H53.272A14.664,14.664,0,0,0,38.625,29.585V82.109a7.976,7.976,0,0,1-6.5-3.9,1.75,1.75,0,0,0-3.014,0,7.938,7.938,0,0,1-14.783-4.027,1.75,1.75,0,0,0-3.5,0A11.458,11.458,0,0,0,22.274,85.631Zm49.642-28.6H49.125v-1.5H71.916Zm-22.791,3.5H71.916v5.01H49.125Zm0,8.51H71.916v1.5H49.125Zm22.791-17.01H49.125v-5.01H71.916ZM65.507,78.213a1.75,1.75,0,0,0-3.014,0,7.906,7.906,0,0,1-13.368.452V74.044H71.916V82.1A7.975,7.975,0,0,1,65.507,78.213Zm9.909-48.628A11.161,11.161,0,0,1,86.564,18.438h4.613a1.75,1.75,0,0,1,0,3.5H86.564a7.656,7.656,0,0,0-7.648,7.647v49.02a7.994,7.994,0,0,1-3.5,2.9Zm-3.5,12.439v1.5H49.125v-1.5ZM53.272,18.438h4.614a1.75,1.75,0,0,1,0,3.5H53.272a7.656,7.656,0,0,0-7.647,7.647V78.474a7.987,7.987,0,0,1-3.5,2.983V29.585A11.16,11.16,0,0,1,53.272,18.438Z"/><path d="M115.421,86.522a1.75,1.75,0,0,0-1.75,1.75A7.938,7.938,0,0,1,98.888,92.3a1.75,1.75,0,0,0-3.014,0,7.927,7.927,0,0,1-13.677,0,1.75,1.75,0,0,0-3.014,0,7.927,7.927,0,0,1-13.677,0,1.75,1.75,0,0,0-3.014,0,7.927,7.927,0,0,1-13.677,0,1.75,1.75,0,0,0-3.014,0,7.927,7.927,0,0,1-13.677,0,1.75,1.75,0,0,0-3.014,0,7.938,7.938,0,0,1-14.783-4.027,1.75,1.75,0,0,0-3.5,0,11.433,11.433,0,0,0,19.79,7.814,11.407,11.407,0,0,0,16.69,0,11.407,11.407,0,0,0,16.69,0,11.407,11.407,0,0,0,16.69,0,11.407,11.407,0,0,0,16.69,0,11.433,11.433,0,0,0,19.79-7.814A1.75,1.75,0,0,0,115.421,86.522Z"/><path d="M115.421,99.868a1.75,1.75,0,0,0-1.75,1.75,7.938,7.938,0,0,1-14.783,4.027,1.75,1.75,0,0,0-3.014,0,7.927,7.927,0,0,1-13.677,0,1.75,1.75,0,0,0-3.014,0,7.927,7.927,0,0,1-13.677,0,1.75,1.75,0,0,0-3.014,0,7.927,7.927,0,0,1-13.677,0,1.75,1.75,0,0,0-3.014,0,7.927,7.927,0,0,1-13.677,0,1.75,1.75,0,0,0-3.014,0,7.938,7.938,0,0,1-14.783-4.027,1.75,1.75,0,1,0-3.5,0,11.433,11.433,0,0,0,19.79,7.814,11.407,11.407,0,0,0,16.69,0,11.407,11.407,0,0,0,16.69,0,11.407,11.407,0,0,0,16.69,0,11.407,11.407,0,0,0,16.69,0,11.433,11.433,0,0,0,19.79-7.814A1.75,1.75,0,0,0,115.421,99.868Z"/></svg>
