<svg id="Layer_1" enable-background="new 0 0 128 128" height="512" viewBox="0 0 128 128" width="512" xmlns="http://www.w3.org/2000/svg"><path d="m53.4 40.1c-.2-4.2 3.5-6.1 6.4-5 .9-1.7 2.3-2.8 4.3-2.8s3.4 1 4.3 2.8c3.7-1.2 6.7 1.6 6.4 5 .2-.1.3-.1.5-.2 1.1-.6 2.3-1.2 3.4-2 2.8-1.9 4-4.5 3.7-7.9-.4-5.7-1.3-11.3-3.1-16.7-.4-1.3.4-2.4 1.7-2.4h6c1 0 1.5.4 1.8 1.3 2.6 7.5 5.1 15 7.7 22.5.8 2.3 1.6 4.6 2.4 7 1 3 .7 6-.3 9-1.2 3.4-3.3 6.2-5.7 8.8-.8.9-1.8 1.7-2.6 2.6-3.6 3.8-3.9 7.7-1 12 1.8 2.7 4.2 5 6.7 7 1 .8 2 1.6 3.1 2.4.6.4.9 1 .9 1.7v9.2c0 1.1-.5 1.7-1.5 2-3.3.9-6.4 2.5-9.3 4.3-4.5 2.7-8.7 6-12.5 9.7-2.1 2-4 4.1-6 6.2-.4.5-.9.7-1.6.7-3.2 0-6.4 0-9.6 0-.8 0-1.3-.3-1.8-.9-5-5.4-10.4-10.4-16.5-14.4-3.3-2.2-6.8-4.2-10.6-5.3-2.1-.6-2.2-1.3-2.1-2.9 0-2.7 0-5.5 0-8.2 0-1 .3-1.6 1.1-2.2 2.7-2 5.3-4.1 7.5-6.7 1.2-1.4 2.3-2.9 3-4.6 1.3-3 1.1-5.9-.9-8.5-.8-1.1-1.8-2.1-2.8-3.1-2.8-2.8-5.3-5.8-6.7-9.6-1.1-2.9-1.4-6-.4-9 .9-2.8 1.9-5.6 2.9-8.4 2.4-6.9 4.8-13.8 7.1-20.7.5-1.5.9-1.8 2.5-1.8h5.3c1.5 0 2.3 1.1 1.8 2.5-1.9 5.9-3 11.9-3.1 18.1 0 1.5.5 2.9 1.4 4.1 1.7 2.1 3.9 3.3 6.2 4.4zm29.9-25.6c.1.3.1.5.2.6 1.3 4.7 2.1 9.6 2.3 14.5.1 1.9.2 3.7-.5 5.5-1 2.8-3 4.7-5.4 6.3-1 .6-2.1 1.2-3.1 1.8.6 1.2.8 2.5.3 3.8-.4 1.3-1.3 2.2-2.5 2.8 1.3 4.1-2.3 7.4-6.1 6.1-1.8 3.7-6.8 3.7-8.6 0-1.9.6-3.6.3-5-1.1s-1.7-3.1-1.1-5c-1.3-.6-2.1-1.5-2.6-2.8-.4-1.3-.2-2.6.4-3.8-1.9-.9-3.6-1.9-5.2-3.2-2.7-2.4-4.2-5.3-4-8.9.2-4.3.7-8.5 1.6-12.6.3-1.3.6-2.5.9-3.8-.7 0-1.3 0-2 0-.4 0-.5.1-.6.5-1 3-2.1 6-3.1 9-2.1 6.1-4.1 12.2-6.3 18.3-.8 2.1-.9 4.1-.3 6.2.8 3.1 2.6 5.6 4.7 7.9 1.3 1.4 2.7 2.7 4 4.1 3.1 3.6 4 7.7 2.4 12.3-1.1 3-3.1 5.5-5.3 7.7-1.9 1.8-3.9 3.4-5.9 5.2-.3-.1-.5.1-.5.4v6.7c0 .2.2.5.4.5 3.8 1.3 7.4 3.3 10.7 5.5 6.1 4.1 11.5 9 16.4 14.4.3.3.6.4 1 .4h6.9c.6 0 1.1-.2 1.5-.6 3.6-4 7.5-7.7 11.7-11 4.7-3.6 9.6-6.8 15.3-8.7.4-.1.3-.4.3-.6 0-2.1 0-4.3 0-6.4 0-.4-.2-.6-.4-.8-1.4-1.1-2.8-2.3-4.2-3.4-2.5-2.2-4.8-4.7-6.3-7.7-1.4-2.7-2-5.6-1.3-8.7.7-2.9 2.4-5.1 4.5-7.1 2.2-2 4.2-4.2 5.6-6.9 1.6-3.1 2.3-6.1 1-9.6-2.1-5.6-3.9-11.2-5.8-16.8-1.2-3.4-2.4-6.9-3.5-10.3-.1-.3-.1-.6-.5-.5-.5-.2-1.2-.2-2-.2zm-16.5 30.9c0-1.5-1.2-2.7-2.7-2.7s-2.8 1.2-2.8 2.7 1.2 2.7 2.7 2.7c1.6 0 2.8-1.2 2.8-2.7zm-3.4-6.3c1.6.1 1.2.2 1.6-1 .1-.3.1-.6.2-.9.1-.7-.4-1.3-1.1-1.4-.7 0-1.2.5-1.1 1.3.1.7.3 1.4.4 2zm0 12.6c-.1.7-.3 1.5-.4 2.2s.5 1.2 1.2 1.1c.6 0 1.1-.6 1.1-1.3 0-.3-.1-.6-.2-.9-.3-1.2-.3-1.2-1.7-1.1zm-6.5-12.4c.1.4.2.6.3.7.6.5 1.2.9 1.9 1.3.1.1.6-.3.8-.5.1-.1.1-.3.1-.4-.4-.6-.7-1.2-1.2-1.8-.3-.4-.8-.5-1.2-.2-.3.2-.5.6-.7.9zm13.4-1.1c-.4.2-.7.2-.8.3-.5.6-.9 1.2-1.3 1.9-.1.1.3.5.5.8.1.1.4.2.4.1.6-.4 1.2-.7 1.8-1.2.3-.3.5-.8.2-1.1-.2-.3-.5-.6-.8-.8zm-1.3 11.2c-1 1-1 .6-.3 1.9.2.3.4.5.6.8.5.6 1.2.6 1.7.2.5-.5.5-1.2-.1-1.7-.7-.5-1.3-.8-1.9-1.2zm1.4-3.3c.8.1 1.5.3 2.2.4.6.1 1.2-.5 1.2-1.1s-.5-1.1-1.1-1.1c-.4 0-.7.1-1.1.1-1.2.3-1.2.3-1.2 1.7zm-10.2 4.2c-.9-1-.9-1-2-.3-.3.2-.5.3-.7.5-.6.5-.6 1.2-.1 1.7s1.3.5 1.7-.1c.3-.6.7-1.2 1.1-1.8zm-2.4-4.9c.2-.6-.1-.8-.6-.8-.5-.1-1-.2-1.5-.3-.7-.1-1.2.4-1.2 1.1s.5 1.2 1.2 1.1c.6 0 1.1-.2 1.6-.3.4-.1.7-.3.5-.8z"/><path d="m54.4 64.4c3-.1 5.9-.7 8.6-1.7.8-.3 1.5-.3 2.2 0 3.2 1.2 6.5 1.8 10 1.7 1.2 0 2 .7 2 1.7 0 1.1-.8 1.7-2 1.8-3.7.1-7.2-.5-10.7-1.7-.3-.1-.6-.1-.9 0-3.5 1.2-7.1 1.8-10.8 1.7-1.1 0-1.8-.8-1.8-1.8s.8-1.7 1.8-1.7z"/></svg>