<?xml version="1.0"?>
<svg xmlns="http://www.w3.org/2000/svg" id="Layer_1" data-name="Layer 1" viewBox="0 0 128 128" width="512" height="512"><title>TICKET OFFICE</title><path d="M115.42,113.67h-9.712V86H107.5a1.75,1.75,0,0,0,1.75-1.75V76.5a1.75,1.75,0,0,0-1.75-1.75h-3.688V54.776a7.194,7.194,0,0,0,5.438-6.963V32a1.75,1.75,0,0,0-1.75-1.75h-4.163L99.411,12.208A1.75,1.75,0,0,0,97.7,10.83H30.3a1.75,1.75,0,0,0-1.71,1.378L24.663,30.25H20.5A1.75,1.75,0,0,0,18.75,32V47.813a7.194,7.194,0,0,0,5.437,6.963V74.75H20.5a1.75,1.75,0,0,0-1.75,1.75v7.75A1.75,1.75,0,0,0,20.5,86h1.792v27.67H12.58a1.75,1.75,0,1,0,0,3.5H115.42a1.75,1.75,0,0,0,0-3.5ZM72,74.75v-4.5a8,8,0,0,0-16,0v4.5H49.76l4.659-21.075A7.154,7.154,0,0,0,64,52.5a7.162,7.162,0,0,0,10.875,0,7.162,7.162,0,0,0,10.875,0,7.162,7.162,0,0,0,10.875,0,7.189,7.189,0,0,0,3.687,2.276V74.75Zm-12.5,0v-4.5a4.5,4.5,0,0,1,9,0v4.5Zm-14.24,0,4.43-20.04a7.119,7.119,0,0,0,1-.375L46.175,74.75Zm-5.081,0,4.512-20.412a7.117,7.117,0,0,0,1.391.475L41.675,74.75Zm-6.5,0,4.392-19.867a7.154,7.154,0,0,0,3.241-1.473L36.594,74.75Zm-.554-34H40.5v7.063a3.688,3.688,0,1,1-7.375,0Zm18.25,0v7.063a3.688,3.688,0,1,1-7.375,0V40.75Zm10.875,0v7.063a3.688,3.688,0,1,1-7.375,0V40.75Zm10.875,0v7.063a3.687,3.687,0,1,1-7.375,0V40.75ZM84,40.75v7.063a3.688,3.688,0,1,1-7.375,0V40.75Zm10.875,0v7.063a3.687,3.687,0,1,1-7.375,0V40.75Zm10.875,7.063a3.692,3.692,0,0,1-3.685,3.687h0a3.692,3.692,0,0,1-3.685-3.687V40.75h7.375ZM31.709,14.33H96.291l3.464,15.92H28.245ZM22.25,33.75h83.5v3.5H22.25Zm0,14.063V40.75h7.375v7.063A3.692,3.692,0,0,1,25.94,51.5h0A3.692,3.692,0,0,1,22.25,47.813Zm5.437,6.963A7.189,7.189,0,0,0,31.375,52.5a7.2,7.2,0,0,0,3.168,2.128L30.094,74.75H27.687ZM22.25,78.25h83.5V82.5H22.25ZM25.792,86h76.417v27.67H25.792Z"/><path d="M76.687,90.25H51.312A1.75,1.75,0,0,0,49.562,92v9.333a1.75,1.75,0,0,0,1.75,1.75H76.687a1.75,1.75,0,0,0,1.75-1.75V92A1.75,1.75,0,0,0,76.687,90.25Zm-1.75,9.333H53.062V93.75H74.937Z"/></svg>
