<svg id="Layer_1" height="512" viewBox="0 0 128 128" width="512" xmlns="http://www.w3.org/2000/svg" data-name="Layer 1"><path d="m115.42 49.042a1.75 1.75 0 0 0 1.75-1.75v-17.792a1.75 1.75 0 0 0 -1.75-1.75h-102.84a1.75 1.75 0 0 0 -1.75 1.75v17.792a1.75 1.75 0 0 0 1.75 1.75 9.125 9.125 0 0 1 0 18.25 1.75 1.75 0 0 0 -1.75 1.75v17.791a1.745 1.745 0 0 0 1.505 1.725c.008 0 .015.01.023.011l91.42 11.667a1.784 1.784 0 0 0 .222.014 1.75 1.75 0 0 0 1.75-1.75v-9.917h9.67a1.75 1.75 0 0 0 1.75-1.75v-17.791a1.75 1.75 0 0 0 -1.75-1.75 9.125 9.125 0 0 1 0-18.25zm-13.17 47.471-62.134-7.93h62.134zm.545-38.346a12.644 12.644 0 0 0 10.875 12.5v14.416h-26.92v-3.75a1.75 1.75 0 1 0 -3.5 0v3.75h-68.92v-14.413a12.626 12.626 0 0 0 0-25.008v-14.412h68.92v3.75a1.75 1.75 0 0 0 3.5 0v-3.75h26.92v14.413a12.644 12.644 0 0 0 -10.87 12.504z"/><path d="m85 42.517a1.75 1.75 0 0 0 -1.75 1.75v9.267a1.75 1.75 0 1 0 3.5 0v-9.267a1.75 1.75 0 0 0 -1.75-1.75z"/><path d="m85 61.05a1.75 1.75 0 0 0 -1.75 1.75v9.267a1.75 1.75 0 0 0 3.5 0v-9.267a1.75 1.75 0 0 0 -1.75-1.75z"/><path d="m32.5 54.167h14.625a1.75 1.75 0 0 0 1.75-1.75v-14.625a1.75 1.75 0 0 0 -1.75-1.75h-14.625a1.75 1.75 0 0 0 -1.75 1.75v14.625a1.75 1.75 0 0 0 1.75 1.75zm1.75-14.625h11.125v11.125h-11.125z"/><path d="m72.167 59.375h-39.667a1.75 1.75 0 0 0 0 3.5h39.667a1.75 1.75 0 1 0 0-3.5z"/><path d="m72.167 50.667h-15.834a1.75 1.75 0 0 0 0 3.5h15.834a1.75 1.75 0 0 0 0-3.5z"/><path d="m72.167 68.083h-39.667a1.75 1.75 0 0 0 0 3.5h39.667a1.75 1.75 0 0 0 0-3.5z"/><path d="m72.167 76.792h-39.667a1.75 1.75 0 0 0 0 3.5h39.667a1.75 1.75 0 0 0 0-3.5z"/><path d="m72.167 41.958h-15.834a1.75 1.75 0 0 0 0 3.5h15.834a1.75 1.75 0 0 0 0-3.5z"/></svg>