<svg id="Layer_1" height="512" viewBox="0 0 128 128" width="512" xmlns="http://www.w3.org/2000/svg" data-name="Layer 1"><path d="m102.333 10.83h-76.666a1.75 1.75 0 0 0 -1.75 1.75v96.087a1.75 1.75 0 0 0 1.75 1.75h1.625v5a1.75 1.75 0 0 0 1.75 1.75h6.758a1.75 1.75 0 0 0 1.75-1.75v-5h52.904v5a1.75 1.75 0 0 0 1.75 1.75h6.754a1.75 1.75 0 0 0 1.75-1.75v-5h1.625a1.75 1.75 0 0 0 1.75-1.75v-96.087a1.75 1.75 0 0 0 -1.75-1.75zm-74.916 3.5h73.166v92.587h-73.166zm6.629 99.341h-3.254v-3.254h3.254zm63.162 0h-3.254v-3.254h3.254z"/><path d="m35.8 97.083h45.971a1.75 1.75 0 0 0 1.75-1.75v-73.666a1.75 1.75 0 0 0 -1.75-1.75h-45.971a1.75 1.75 0 0 0 -1.75 1.75v73.666a1.75 1.75 0 0 0 1.75 1.75zm1.75-49.693h42.471v1.887h-42.475zm15.717-3.5h-6.167v-12.833h6.167zm17.208 0h-6.175v-12.833h6.167zm9.55 8.887v27.78h-6.05v-14.584a1.75 1.75 0 0 0 -1.75-1.75h-9.671a1.75 1.75 0 0 0 -1.75 1.75v14.584h-4.041v-14.584a1.75 1.75 0 0 0 -1.75-1.75h-9.667a1.75 1.75 0 0 0 -1.75 1.75v14.584h-6.05v-27.78zm0 33.167h-42.479v-1.887h42.475zm-26.762-5.387h-6.163v-12.834h6.167zm17.208 0h-6.171v-12.834h6.167zm-32.925 13.026v-4.14h42.475v4.14zm42.475-70.166v20.473h-6.05v-14.583a1.75 1.75 0 0 0 -1.75-1.75h-9.667a1.75 1.75 0 0 0 -1.75 1.75v14.583h-4.041v-14.583a1.75 1.75 0 0 0 -1.75-1.75h-9.667a1.75 1.75 0 0 0 -1.75 1.75v14.583h-6.05v-20.473z"/><path d="m88.667 47.083h6.5a1.75 1.75 0 0 0 1.75-1.75v-23.666a1.75 1.75 0 0 0 -1.75-1.75h-6.5a1.75 1.75 0 0 0 -1.75 1.75v23.666a1.75 1.75 0 0 0 1.75 1.75zm1.75-23.667h3v20.167h-3z"/><path d="m88.667 77.583h6.5a1.75 1.75 0 0 0 1.75-1.75v-23.666a1.75 1.75 0 0 0 -1.75-1.75h-6.5a1.75 1.75 0 0 0 -1.75 1.75v23.666a1.75 1.75 0 0 0 1.75 1.75zm1.75-23.667h3v20.167h-3z"/><path d="m88.667 84.583h6.5a1.75 1.75 0 0 0 0-3.5h-6.5a1.75 1.75 0 0 0 0 3.5z"/><path d="m88.667 91.583h6.5a1.75 1.75 0 0 0 0-3.5h-6.5a1.75 1.75 0 0 0 0 3.5z"/><path d="m70.75 100.417h-13.5a1.75 1.75 0 0 0 0 3.5h13.5a1.75 1.75 0 0 0 0-3.5z"/></svg>