<svg id="Layer_1" height="512" viewBox="0 0 128 128" width="512" xmlns="http://www.w3.org/2000/svg" data-name="Layer 1"><path d="m117.171 37.352a11.027 11.027 0 0 0 -9.248-10.863 1.747 1.747 0 0 0 -.279-.043 11.005 11.005 0 0 0 -1.491-.113h-50.465a11 11 0 0 0 -8.032 18.536h-26.948a1.75 1.75 0 0 0 -1.75 1.75v2.881h-6.379a1.75 1.75 0 0 0 -1.75 1.75v6.268a1.75 1.75 0 0 0 1.75 1.75h6.379v9.149a1.75 1.75 0 0 0 1.75 1.75h56.114l.922 6.166h-7.481v-1.866a1.75 1.75 0 0 0 -3.5 0v12.562a1.75 1.75 0 0 0 3.5 0v-1.866h8.8l2.245 15.013a1.749 1.749 0 0 0 1.73 1.491h19.75a1.751 1.751 0 0 0 1.73-2.013l-3.618-23.86 7.676-6c.008-.006.012-.018.02-.025a1.739 1.739 0 0 0 .653-1.354v-20.5a11.032 11.032 0 0 0 7.922-10.563zm-59.733 7.517v-15.036h3v15.036zm6.5-15.036h35.312v15.036h-35.312zm38.812 15.036v-15.036h3v15.036zm-48.812-14.822v14.608a7.509 7.509 0 0 1 0-14.608zm-31.48 18.322h76.161l-18.043 7.4h-58.118zm-8.129 4.631h4.629v2.768h-4.629zm8.129 6.268h58.463a1.761 1.761 0 0 0 .664-.131l24.165-9.909v17.439h-83.292zm47.8 22.4v-1.83h8l.274 1.83zm27.024-6.355 3.468 22.859h-16.202l-4.188-28h22.058l-4.478 3.5a1.75 1.75 0 0 0 -.653 1.636zm11.968-31.119v-13.685a7.506 7.506 0 0 1 0 13.685z"/></svg>