<?xml version="1.0"?>
<svg xmlns="http://www.w3.org/2000/svg" id="Layer_1" data-name="Layer 1" viewBox="0 0 128 128" width="512" height="512"><title>WATER SLIDE</title><path d="M64,47.411a1.75,1.75,0,0,0-1.75,1.75V59.235a1.75,1.75,0,0,0,3.5,0V49.161A1.75,1.75,0,0,0,64,47.411Z"/><path d="M64,63.628a1.75,1.75,0,0,0-1.75,1.75v5.391a1.75,1.75,0,0,0,3.5,0V65.378A1.75,1.75,0,0,0,64,63.628Z"/><path d="M73.973,47.417a1.75,1.75,0,0,0-1.6,1.886l2.2,26.993A1.75,1.75,0,0,0,76.308,77.9q.072,0,.144-.006a1.75,1.75,0,0,0,1.6-1.886l-2.2-26.993A1.756,1.756,0,0,0,73.973,47.417Z"/><path d="M53.257,56.9a1.761,1.761,0,0,0-1.886,1.6L49.946,76.013a1.75,1.75,0,0,0,1.6,1.886q.072.006.144.006A1.75,1.75,0,0,0,53.435,76.3l1.425-17.515A1.75,1.75,0,0,0,53.257,56.9Z"/><path d="M54.027,47.417a1.762,1.762,0,0,0-1.886,1.6l-.333,4.093A1.75,1.75,0,0,0,53.411,55q.072.006.144.006A1.75,1.75,0,0,0,55.3,53.4L55.63,49.3A1.75,1.75,0,0,0,54.027,47.417Z"/><path d="M22.274,85.632A11.485,11.485,0,0,0,30.619,82a11.538,11.538,0,0,0,4.352,2.886,1.727,1.727,0,0,0,.418.158,11.21,11.21,0,0,0,7.967-.309c.044-.014.086-.031.128-.049l.106-.048c.048-.023.1-.044.144-.072A11.541,11.541,0,0,0,47.31,82,11.406,11.406,0,0,0,64,82a11.406,11.406,0,0,0,16.69,0,11.544,11.544,0,0,0,3.593,2.576c.025.015.053.026.079.039.061.028.122.056.183.083.03.012.06.024.091.034a11.213,11.213,0,0,0,7.969.314,1.726,1.726,0,0,0,.427-.162A11.537,11.537,0,0,0,97.381,82a11.433,11.433,0,0,0,19.79-7.814,1.75,1.75,0,0,0-3.5,0,7.938,7.938,0,0,1-14.783,4.026,1.75,1.75,0,0,0-3.014,0,7.968,7.968,0,0,1-2.125,2.348L91.023,43.214V35.8a5.112,5.112,0,0,0-3.5-4.794V26.147h2.025A1.75,1.75,0,0,0,91.3,24.4v-7.71a1.75,1.75,0,0,0-1.75-1.75h-51.1a1.75,1.75,0,0,0-1.75,1.75V24.4a1.75,1.75,0,0,0,1.75,1.75h2.025v4.858a5.112,5.112,0,0,0-3.5,4.794v7.415L34.251,80.561a7.968,7.968,0,0,1-2.125-2.348,1.75,1.75,0,0,0-3.014,0,7.938,7.938,0,0,1-14.783-4.026,1.75,1.75,0,0,0-3.5,0A11.459,11.459,0,0,0,22.274,85.632ZM80.69,77.353a1.749,1.749,0,0,0-1.507.86,7.926,7.926,0,0,1-13.677,0,1.75,1.75,0,0,0-3.014,0,7.926,7.926,0,0,1-13.677,0,1.75,1.75,0,0,0-3.014,0,7.909,7.909,0,0,1-.946,1.261l2.606-35.713c.009-.121.014-.243.014-.367v-.746H80.523v.746c0,.124,0,.246.014.361l2.607,35.72a7.911,7.911,0,0,1-.947-1.262A1.749,1.749,0,0,0,80.69,77.353Zm9.655,4.655a7.344,7.344,0,0,1-3.523-.205L84.027,43.5l0-7.7a1.756,1.756,0,0,1,3.5,0v7.479c0,.043,0,.085,0,.127ZM40.2,18.438H87.8v4.21H40.2Zm43.822,7.71v4.858a5.112,5.112,0,0,0-3.5,4.794v3.349H47.477V35.8a5.112,5.112,0,0,0-3.5-4.794V26.147ZM40.472,43.4c0-.042,0-.084,0-.127V35.8a1.756,1.756,0,0,1,3.5,0v7.595L41.178,81.8a7.344,7.344,0,0,1-3.524.205Z"/><path d="M115.421,86.522a1.75,1.75,0,0,0-1.75,1.75A7.938,7.938,0,0,1,98.888,92.3a1.75,1.75,0,0,0-3.014,0,7.927,7.927,0,0,1-13.677,0,1.75,1.75,0,0,0-3.014,0,7.927,7.927,0,0,1-13.677,0,1.75,1.75,0,0,0-3.014,0,7.927,7.927,0,0,1-13.677,0,1.75,1.75,0,0,0-3.014,0,7.927,7.927,0,0,1-13.677,0,1.75,1.75,0,0,0-3.014,0,7.938,7.938,0,0,1-14.783-4.026,1.75,1.75,0,0,0-3.5,0,11.433,11.433,0,0,0,19.79,7.813,11.406,11.406,0,0,0,16.69,0,11.406,11.406,0,0,0,16.69,0,11.406,11.406,0,0,0,16.69,0,11.406,11.406,0,0,0,16.69,0,11.433,11.433,0,0,0,19.79-7.813A1.75,1.75,0,0,0,115.421,86.522Z"/><path d="M115.421,99.868a1.75,1.75,0,0,0-1.75,1.75,7.938,7.938,0,0,1-14.783,4.026,1.75,1.75,0,0,0-3.014,0,7.927,7.927,0,0,1-13.677,0,1.75,1.75,0,0,0-3.014,0,7.927,7.927,0,0,1-13.677,0,1.75,1.75,0,0,0-3.014,0,7.927,7.927,0,0,1-13.677,0,1.75,1.75,0,0,0-3.014,0,7.927,7.927,0,0,1-13.677,0,1.75,1.75,0,0,0-3.014,0,7.938,7.938,0,0,1-14.783-4.026,1.75,1.75,0,1,0-3.5,0,11.433,11.433,0,0,0,19.79,7.813,11.406,11.406,0,0,0,16.69,0,11.406,11.406,0,0,0,16.69,0,11.406,11.406,0,0,0,16.69,0,11.406,11.406,0,0,0,16.69,0,11.433,11.433,0,0,0,19.79-7.813A1.75,1.75,0,0,0,115.421,99.868Z"/></svg>
