<svg id="Layer_1" height="512" viewBox="0 0 128 128" width="512" xmlns="http://www.w3.org/2000/svg" data-name="Layer 1"><path d="m115.421 81.4a1.75 1.75 0 0 0 -1.75 1.75 7.938 7.938 0 0 1 -14.783 4.026 1.75 1.75 0 0 0 -3.014 0 7.927 7.927 0 0 1 -13.677 0 1.75 1.75 0 0 0 -3.014 0 7.927 7.927 0 0 1 -13.677 0 1.75 1.75 0 0 0 -3.014 0 7.927 7.927 0 0 1 -13.677 0 1.75 1.75 0 0 0 -3.014 0 7.927 7.927 0 0 1 -13.677 0 1.75 1.75 0 0 0 -3.014 0 7.938 7.938 0 0 1 -14.78-4.03 1.75 1.75 0 0 0 -3.5 0 11.433 11.433 0 0 0 19.79 7.813 11.406 11.406 0 0 0 16.69 0 11.406 11.406 0 0 0 16.69 0 11.406 11.406 0 0 0 16.69 0 11.406 11.406 0 0 0 16.69 0 11.433 11.433 0 0 0 19.79-7.813 1.75 1.75 0 0 0 -1.749-1.746z"/><path d="m115.421 94.741a1.75 1.75 0 0 0 -1.75 1.75 7.938 7.938 0 0 1 -14.783 4.026 1.75 1.75 0 0 0 -3.014 0 7.927 7.927 0 0 1 -13.677 0 1.75 1.75 0 0 0 -3.014 0 7.927 7.927 0 0 1 -13.677 0 1.75 1.75 0 0 0 -3.014 0 7.927 7.927 0 0 1 -13.677 0 1.75 1.75 0 0 0 -3.014 0 7.927 7.927 0 0 1 -13.677 0 1.75 1.75 0 0 0 -3.014 0 7.938 7.938 0 0 1 -14.78-4.026 1.75 1.75 0 0 0 -3.5 0 11.433 11.433 0 0 0 19.79 7.813 11.406 11.406 0 0 0 16.69 0 11.406 11.406 0 0 0 16.69 0 11.406 11.406 0 0 0 16.69 0 11.406 11.406 0 0 0 16.69 0 11.433 11.433 0 0 0 19.79-7.813 1.75 1.75 0 0 0 -1.749-1.75z"/><path d="m64 41.856a1.75 1.75 0 0 0 -1.75 1.75v9.5a1.75 1.75 0 0 0 3.5 0v-9.5a1.75 1.75 0 0 0 -1.75-1.75z"/><path d="m64 57.147a1.75 1.75 0 0 0 -1.75 1.75v5.084a1.75 1.75 0 0 0 3.5 0v-5.081a1.75 1.75 0 0 0 -1.75-1.753z"/><path d="m71.375 41.86a1.749 1.749 0 0 0 -1.635 1.857l1.625 25.453a1.75 1.75 0 0 0 1.744 1.639h.113a1.749 1.749 0 0 0 1.635-1.857l-1.625-25.452a1.74 1.74 0 0 0 -1.857-1.64z"/><path d="m56.055 50.8a1.743 1.743 0 0 0 -1.855 1.633l-1.057 16.515a1.749 1.749 0 0 0 1.635 1.857h.113a1.75 1.75 0 0 0 1.745-1.639l1.054-16.511a1.749 1.749 0 0 0 -1.635-1.855z"/><path d="m56.626 41.86a1.739 1.739 0 0 0 -1.858 1.64l-.247 3.859a1.75 1.75 0 0 0 1.635 1.857h.113a1.751 1.751 0 0 0 1.745-1.639l.247-3.859a1.75 1.75 0 0 0 -1.635-1.858z"/><path d="m115.421 28.731a1.75 1.75 0 0 0 1.75-1.75v-5.167a1.75 1.75 0 0 0 -1.75-1.75h-33.8a1.75 1.75 0 0 0 -1.75 1.75v5.167a1.75 1.75 0 0 0 1.75 1.75h3.754v8.5h-4.904l-.1-1.53a1.749 1.749 0 0 0 -1.746-1.637h-29.25a1.75 1.75 0 0 0 -1.746 1.636l-.1 1.53h-5.946v-8.5h4.792a1.75 1.75 0 0 0 1.75-1.75v-5.166a1.75 1.75 0 0 0 -1.75-1.75h-33.795a1.75 1.75 0 0 0 -1.75 1.75v5.167a1.75 1.75 0 0 0 1.75 1.75h3.754v8.5h-3.754a1.75 1.75 0 0 0 -1.75 1.75v30.079a11.458 11.458 0 0 0 11.444 11.44c.185 0 .368-.02.552-.029.029 0 .056.009.086.009a1.754 1.754 0 0 0 .274-.028 11.5 11.5 0 0 0 7.433-3.584 11.523 11.523 0 0 0 6.352 3.441 1.747 1.747 0 0 0 .321.051 11.227 11.227 0 0 0 1.672.14 11.483 11.483 0 0 0 8.345-3.632 11.4 11.4 0 0 0 16.69 0 11.406 11.406 0 0 0 16.69 0 11.485 11.485 0 0 0 8.346 3.632 11.234 11.234 0 0 0 1.639-.135 1.737 1.737 0 0 0 .367-.058 11.521 11.521 0 0 0 6.339-3.438 11.433 11.433 0 0 0 19.79-7.814v-30.074a1.75 1.75 0 0 0 -1.75-1.75h-4.792v-8.5zm-32.046-5.167h30.3v1.667h-30.3zm12.754 13.667v-8.5h3.75v8.5zm-7.25-8.5h3.75v8.5h-3.75zm-50.8 8.5h-3.75v-8.5h3.75zm-11 0v-8.5h3.75v8.5zm-12.749-13.667h30.3v1.667h-30.3zm5.5 5.167h3.75v8.5h-3.75zm12.296 44.355a1.75 1.75 0 0 0 -3.014 0 7.993 7.993 0 0 1 -4.45 3.53v-22.216a5.5 5.5 0 1 1 11 0v21.86a7.988 7.988 0 0 1 -3.536-3.174zm7.036 3.906v-22.592a9 9 0 1 0 -18 0v22.52a7.951 7.951 0 0 1 -6.832-7.86v-28.329h32.97l-2.164 33.3a7.97 7.97 0 0 1 -5.974 2.961zm33.183.008a7.983 7.983 0 0 1 -6.838-3.919 1.75 1.75 0 0 0 -3.014 0 7.926 7.926 0 0 1 -13.677 0c-.028-.048-.069-.085-.1-.13l2.3-35.392h25.97l2.3 35.392c-.032.045-.073.082-.1.13a7.983 7.983 0 0 1 -6.841 3.919zm26.543-3.919a1.75 1.75 0 0 0 -3.014 0 7.987 7.987 0 0 1 -3.536 3.174v-21.855a5.5 5.5 0 1 1 11 0v22.215a7.994 7.994 0 0 1 -4.45-3.529zm14.783-4.026a7.951 7.951 0 0 1 -6.833 7.858v-22.513a9 9 0 1 0 -18 0v22.592a7.97 7.97 0 0 1 -5.976-2.959l-2.162-33.302h32.973zm-6.542-31.828h-3.75v-8.5h3.75z"/></svg>