<?xml version="1.0"?>
<svg xmlns="http://www.w3.org/2000/svg" id="Layer_1" data-name="Layer 1" viewBox="0 0 128 128" width="512" height="512"><title>WAVE</title><path d="M22.274,73.82a11.441,11.441,0,0,0,6.956-2.392,1.746,1.746,0,0,0,.283-.222,11.485,11.485,0,0,0,1.105-1.016,11.407,11.407,0,0,0,16.69,0,11.407,11.407,0,0,0,16.69,0,11.376,11.376,0,0,0,14,2.117c.022-.014.045-.026.066-.042a11.536,11.536,0,0,0,2.624-2.075,11.407,11.407,0,0,0,16.69,0,11.433,11.433,0,0,0,19.79-7.814,1.75,1.75,0,0,0-3.5,0A7.938,7.938,0,0,1,98.888,66.4a1.75,1.75,0,0,0-3.014,0,7.927,7.927,0,0,1-13.677,0,1.75,1.75,0,0,0-3.014,0,7.954,7.954,0,0,1-2.325,2.48,20.008,20.008,0,0,1-10.48-9.572,10.153,10.153,0,0,0,5.859-4.4,10.131,10.131,0,0,0,4.45-.3A7.468,7.468,0,0,0,87.751,54.6a10.771,10.771,0,0,0,16.638-.279q.3.021.6.021a8.754,8.754,0,0,0,7.271-13.637,12.085,12.085,0,0,0-8.245-12.336l-4.67-1.534a1.74,1.74,0,0,0-.546-.087H37.785a23.532,23.532,0,0,0-13.01,43.143,7.832,7.832,0,0,1-2.5.428,7.954,7.954,0,0,1-7.945-7.945,1.75,1.75,0,0,0-3.5,0A11.458,11.458,0,0,0,22.274,73.82Zm82.717-22.977a5.3,5.3,0,0,1-1.063-.107,1.748,1.748,0,0,0-1.828.774,7.274,7.274,0,0,1-12.809-.971,1.774,1.774,0,0,0-1.7-1.042,1.75,1.75,0,0,0-1.572,1.229,3.971,3.971,0,0,1-7.222.883,1.75,1.75,0,0,0-2.226-.686,6.667,6.667,0,0,1-4.734.311,1.75,1.75,0,0,0-2.121.972,6.646,6.646,0,0,1-12.088.226,1.751,1.751,0,0,0-2.515-.716,5.552,5.552,0,1,1-1.079-9.9,1.75,1.75,0,0,0,2.3-1.245,5.541,5.541,0,0,1,10.353-1.2,1.75,1.75,0,0,0,2.724.526,6.627,6.627,0,0,1,9.673.935A1.75,1.75,0,0,0,82.1,40.4a3.984,3.984,0,0,1,7.481.111,1.751,1.751,0,0,0,2.567.9,7.345,7.345,0,0,1,7.7.05,1.752,1.752,0,0,0,1.989-.079,5.208,5.208,0,0,1,3.151-1.058,5.259,5.259,0,0,1,0,10.518ZM84.254,30.249H98.521l4.4,1.446a8.579,8.579,0,0,1,5.567,5.865,8.715,8.715,0,0,0-7.77.381,10.855,10.855,0,0,0-8.739-.351,7.479,7.479,0,0,0-11.839-.646A10.128,10.128,0,0,0,68.711,36.1,9.044,9.044,0,0,0,53.5,38.084a8.871,8.871,0,0,0-1.35-.1,9.093,9.093,0,0,0-1,.058,12.13,12.13,0,0,0-4.6-7.79h37.7ZM17.75,50.284A20.051,20.051,0,0,1,37.543,30.261L41.909,31.7a8.582,8.582,0,0,1,5.846,7.43A9.045,9.045,0,0,0,55.38,55.481a10.041,10.041,0,0,0,7.284,4.166,23.531,23.531,0,0,0,9.178,10.64A7.975,7.975,0,0,1,65.507,66.4a1.75,1.75,0,0,0-3.014,0,7.927,7.927,0,0,1-13.677,0,1.75,1.75,0,0,0-3.014,0,7.927,7.927,0,0,1-13.677,0,1.75,1.75,0,0,0-3.014,0,7.912,7.912,0,0,1-1.062,1.39A20.164,20.164,0,0,1,17.75,50.284Z"/><path d="M115.421,74.711a1.75,1.75,0,0,0-1.75,1.75,7.938,7.938,0,0,1-14.783,4.027,1.75,1.75,0,0,0-3.014,0,7.927,7.927,0,0,1-13.677,0,1.75,1.75,0,0,0-3.014,0,7.927,7.927,0,0,1-13.677,0,1.75,1.75,0,0,0-3.014,0,7.927,7.927,0,0,1-13.677,0,1.75,1.75,0,0,0-3.014,0,7.927,7.927,0,0,1-13.677,0,1.75,1.75,0,0,0-3.014,0,7.938,7.938,0,0,1-14.783-4.027,1.75,1.75,0,0,0-3.5,0,11.433,11.433,0,0,0,19.79,7.814,11.407,11.407,0,0,0,16.69,0,11.407,11.407,0,0,0,16.69,0,11.407,11.407,0,0,0,16.69,0,11.407,11.407,0,0,0,16.69,0,11.433,11.433,0,0,0,19.79-7.814A1.75,1.75,0,0,0,115.421,74.711Z"/><path d="M115.421,88.057a1.75,1.75,0,0,0-1.75,1.75,7.938,7.938,0,0,1-14.783,4.026,1.75,1.75,0,0,0-3.014,0,7.927,7.927,0,0,1-13.677,0,1.75,1.75,0,0,0-3.014,0,7.927,7.927,0,0,1-13.677,0,1.75,1.75,0,0,0-3.014,0,7.927,7.927,0,0,1-13.677,0,1.75,1.75,0,0,0-3.014,0,7.927,7.927,0,0,1-13.677,0,1.75,1.75,0,0,0-3.014,0,7.938,7.938,0,0,1-14.783-4.026,1.75,1.75,0,0,0-3.5,0,11.433,11.433,0,0,0,19.79,7.814,11.407,11.407,0,0,0,16.69,0,11.407,11.407,0,0,0,16.69,0,11.407,11.407,0,0,0,16.69,0,11.407,11.407,0,0,0,16.69,0,11.433,11.433,0,0,0,19.79-7.814A1.75,1.75,0,0,0,115.421,88.057Z"/></svg>
