<svg id="Layer_1" height="512" viewBox="0 0 128 128" width="512" xmlns="http://www.w3.org/2000/svg" data-name="Layer 1"><path d="m84.417 71.931a7.16 7.16 0 0 0 -2.578-5.5 7.458 7.458 0 0 0 2.578-5.641v-20.963a11.925 11.925 0 0 0 -5.925-10.285 8.416 8.416 0 0 1 -4.18-7.257v-.085h.1a1.75 1.75 0 0 0 1.75-1.75v-7.87a1.75 1.75 0 0 0 -1.75-1.75h-20.829a1.75 1.75 0 0 0 -1.75 1.75v7.873a1.75 1.75 0 0 0 1.75 1.75h.1v.082a8.415 8.415 0 0 1 -4.18 7.257 11.927 11.927 0 0 0 -5.924 10.285v20.959a7.455 7.455 0 0 0 2.578 5.641 7.162 7.162 0 0 0 -2.578 5.5v39.213a6.037 6.037 0 0 0 6.03 6.03h28.778a6.037 6.037 0 0 0 6.03-6.03zm-3.5-16.023h-33.834v-12.293h33.834zm-29.863 8.848a3.975 3.975 0 0 1 -3.971-3.971v-1.377h33.834v1.378a3.975 3.975 0 0 1 -3.971 3.971 1.75 1.75 0 0 0 0 3.5h.3a3.679 3.679 0 0 1 3.675 3.674v11.069a17.873 17.873 0 0 0 -12.851 2.643c-4.166 2.612-6.962 2.772-10.946 2.13a35.054 35.054 0 0 0 -10.041-1.707v-14.135a3.679 3.679 0 0 1 3.674-3.674h.3a1.75 1.75 0 0 0 0-3.5zm18.876 23.851a14.429 14.429 0 0 1 10.435-2.159 9.442 9.442 0 0 1 -4.185 4.367c-2.788 1.412-6.429 1.394-10.823 0a20.852 20.852 0 0 0 4.573-2.208zm-4.18-69.907v-4.37h1.75v4.37zm-5.25 0v-4.37h1.75v4.37zm12.167 0h-1.667v-4.37h1.667zm-17.334-4.37h1.667v4.37h-1.667zm-4.07 18.24a11.925 11.925 0 0 0 5.924-10.285v-.085h13.625v.082a11.926 11.926 0 0 0 5.924 10.285 8.414 8.414 0 0 1 4.181 7.257v.288h-33.834v-.288a8.415 8.415 0 0 1 4.18-7.255zm27.124 81.1h-28.773a2.533 2.533 0 0 1 -2.53-2.53v-21.574a36.139 36.139 0 0 1 13.724 3.294 27.114 27.114 0 0 0 10.555 2.518 13.965 13.965 0 0 0 6.4-1.44 12.252 12.252 0 0 0 3.156-2.3v19.5a2.533 2.533 0 0 1 -2.532 2.532z"/></svg>