<svg id="Layer_1" height="512" viewBox="0 0 128 128" width="512" xmlns="http://www.w3.org/2000/svg" data-name="Layer 1"><path d="m117.171 24.182v-.47a1.75 1.75 0 0 0 -1.75-1.75h-11.531a14.856 14.856 0 0 0 -11.543-6.405 14.674 14.674 0 0 0 -13.885 20.82c.021.052.043.1.068.155l.191.386c.069.142.139.283.214.42.024.044.051.087.078.129l6.259 9.38a4.442 4.442 0 0 1 -3.694 6.908h-2.778a14.317 14.317 0 0 0 -12.7-7.736h-30.35a1.749 1.749 0 0 0 -1.65 2.345l1.843 5.1c.035.1.081.191.117.289h-23.481a1.75 1.75 0 0 0 -1.641 2.359l1.32 3.554a33.3 33.3 0 0 0 16.37 18.156h-1.928a9.812 9.812 0 0 0 -7.5 16.148h-6.621a1.75 1.75 0 1 0 0 3.5h102.842a1.75 1.75 0 0 0 0-3.5h-6.621a9.8 9.8 0 0 0 -6.115-16.034 20.65 20.65 0 0 0 9.353-17.271v-1.082a20.006 20.006 0 0 0 -1.914-8.513l-6.045-12.77a14.72 14.72 0 0 0 1.135-2.123 12.012 12.012 0 0 0 11.957-11.995zm-12 8.5h-2.187a3.379 3.379 0 0 1 -3.375-3.375v-.47a3.371 3.371 0 0 1 3.222-3.359 1.744 1.744 0 0 0 .38-.016h10.363a8.513 8.513 0 0 1 -8.403 7.22zm-39.066 16.838a10.811 10.811 0 1 1 0 21.622 28.642 28.642 0 0 1 -26.867-18.864l-1-2.759zm35.195 31.805a6.322 6.322 0 0 1 0 12.645h-74.6a6.322 6.322 0 0 1 0-12.645zm5.667-28.756a16.489 16.489 0 0 1 1.577 7.014v1.081a17.18 17.18 0 0 1 -17.16 17.161h-47.984a29.845 29.845 0 0 1 -27.86-19.375l-.44-1.195h22.524a32.15 32.15 0 0 0 28.481 17.387 14.282 14.282 0 0 0 13.97-17.386h1.5a7.943 7.943 0 0 0 6.606-12.35l-6.207-9.306c-.036-.068-.069-.138-.1-.208l-.154-.311c-.01-.025-.021-.049-.032-.074a11.184 11.184 0 0 1 10.533-15.952 11.237 11.237 0 0 1 7.741 3.617 6.876 6.876 0 0 0 -3.852 6.165v.47a6.881 6.881 0 0 0 5.282 6.681 11.374 11.374 0 0 1 -.725 1.076 1.75 1.75 0 0 0 -.22 1.753c.024.057.052.112.081.166z"/><path d="m90.311 23.095a2.306 2.306 0 1 0 2.305 2.305 2.308 2.308 0 0 0 -2.305-2.305z"/><path d="m104.627 101.461h-58.294a1.75 1.75 0 0 0 0 3.5h58.294a1.75 1.75 0 1 0 0-3.5z"/><path d="m39.29 103.211a1.75 1.75 0 0 0 -1.75-1.75h-14.167a1.75 1.75 0 0 0 0 3.5h14.167a1.75 1.75 0 0 0 1.75-1.75z"/><path d="m90.46 108.953h-7.46a1.75 1.75 0 0 0 0 3.5h7.46a1.75 1.75 0 0 0 0-3.5z"/><path d="m75.833 108.953h-38.293a1.75 1.75 0 0 0 0 3.5h38.293a1.75 1.75 0 0 0 0-3.5z"/></svg>