<?xml version="1.0"?>
<svg xmlns="http://www.w3.org/2000/svg" id="Layer_1" data-name="Layer 1" viewBox="0 0 128 128" width="512" height="512"><title>FLOAT</title><path d="M29.6,42.856a1.75,1.75,0,0,0,2.43-.467A39.029,39.029,0,0,1,44.046,30.972a1.75,1.75,0,0,0-1.812-2.994,42.546,42.546,0,0,0-13.1,12.449A1.75,1.75,0,0,0,29.6,42.856Z"/><path d="M114.5,47.323a4.674,4.674,0,0,0-5.734-3.02A49.2,49.2,0,0,0,83.7,19.232,4.675,4.675,0,0,0,80.677,13.5a53.447,53.447,0,0,0-33.354,0A4.675,4.675,0,0,0,44.3,19.232,49.172,49.172,0,0,0,19.232,44.3,4.675,4.675,0,0,0,13.5,47.323a53.447,53.447,0,0,0,0,33.354,4.688,4.688,0,0,0,2.574,2.816,4.523,4.523,0,0,0,3.161.2A49.191,49.191,0,0,0,44.3,108.768a4.675,4.675,0,0,0,3.021,5.734,53.446,53.446,0,0,0,33.354,0,4.688,4.688,0,0,0,2.816-2.573,4.735,4.735,0,0,0,.2-3.163A49.185,49.185,0,0,0,108.768,83.7a4.671,4.671,0,0,0,5.733-3.019,53.421,53.421,0,0,0,0-33.354Zm-8.95-1.64L92.345,51.7A30.8,30.8,0,0,0,76.3,35.655l6.02-13.207A45.677,45.677,0,0,1,105.551,45.683Zm-25.6,15.482a16.278,16.278,0,0,1,0,5.673,4.67,4.67,0,0,0,2.7,5.041l.294.134a20.712,20.712,0,0,1-10.93,10.932l-.134-.295a4.671,4.671,0,0,0-5.04-2.7,16.405,16.405,0,0,1-5.674,0,4.666,4.666,0,0,0-5.041,2.7l-.137.3A20.768,20.768,0,0,1,45.057,72.012l.295-.134a4.669,4.669,0,0,0,2.7-5.041,16.344,16.344,0,0,1,0-5.673,4.669,4.669,0,0,0-2.7-5.041l-.3-.135A20.477,20.477,0,0,1,55.987,45.055l.135.3a4.691,4.691,0,0,0,4.248,2.769,4.553,4.553,0,0,0,.793-.07,16.427,16.427,0,0,1,5.674,0,4.665,4.665,0,0,0,5.041-2.7l.134-.295a20.715,20.715,0,0,1,10.932,10.93l-.3.135A4.671,4.671,0,0,0,79.948,61.164ZM73.463,86.127A24.236,24.236,0,0,0,86.126,73.463l3.035,1.383A27.316,27.316,0,0,1,74.847,89.161Zm-20.31,3.035A27.316,27.316,0,0,1,38.839,74.846l3.035-1.383A24.3,24.3,0,0,0,54.535,86.131Zm1.382-47.29A23.957,23.957,0,0,0,41.87,54.535l-3.031-1.382A27.316,27.316,0,0,1,53.154,38.839ZM86.127,54.537A24.236,24.236,0,0,0,73.464,41.874l1.383-3.035A27.318,27.318,0,0,1,89.162,53.154ZM47.714,17.473a1.172,1.172,0,0,1,.708-.651,49.942,49.942,0,0,1,31.156,0,1.173,1.173,0,0,1,.708.651,1.227,1.227,0,0,1-.008,1.011h0L68.692,43.9a1.175,1.175,0,0,1-1.247.7,19.941,19.941,0,0,0-6.891,0,1.187,1.187,0,0,1-1.247-.7L47.721,18.483A1.228,1.228,0,0,1,47.714,17.473Zm-2.032,4.975L51.7,35.655A30.8,30.8,0,0,0,35.655,51.7L22.448,45.682A45.656,45.656,0,0,1,45.682,22.448ZM17.473,80.286a1.172,1.172,0,0,1-.651-.708,49.94,49.94,0,0,1,0-31.155,1.172,1.172,0,0,1,.651-.708,1.262,1.262,0,0,1,.5-.105,1.223,1.223,0,0,1,.509.113L43.9,59.307a1.186,1.186,0,0,1,.7,1.248,19.822,19.822,0,0,0,0,6.891,1.186,1.186,0,0,1-.7,1.247L18.483,80.279A1.232,1.232,0,0,1,17.473,80.286Zm4.976,2.031L35.655,76.3A30.8,30.8,0,0,0,51.7,92.345l-6.02,13.207A45.675,45.675,0,0,1,22.449,82.318Zm57.838,28.21a1.172,1.172,0,0,1-.709.651,49.939,49.939,0,0,1-31.155,0,1.172,1.172,0,0,1-.708-.651,1.228,1.228,0,0,1,.007-1.01L59.307,84.1a1.209,1.209,0,0,1,1.071-.72,1.019,1.019,0,0,1,.176.015,19.944,19.944,0,0,0,6.892,0,1.182,1.182,0,0,1,1.246.7l11.586,25.417A1.227,1.227,0,0,1,80.286,110.528Zm2.032-4.976L76.3,92.345A30.8,30.8,0,0,0,92.344,76.3l13.208,6.021A45.674,45.674,0,0,1,82.318,105.551Zm28.861-25.974a1.171,1.171,0,0,1-.652.708,1.225,1.225,0,0,1-1.009-.007h0L84.1,68.693a1.185,1.185,0,0,1-.7-1.247,19.825,19.825,0,0,0,0-6.892,1.186,1.186,0,0,1,.7-1.248l25.418-11.586a1.21,1.21,0,0,1,.509-.113,1.258,1.258,0,0,1,.5.105,1.171,1.171,0,0,1,.652.708,49.931,49.931,0,0,1,0,31.155Z"/></svg>
