<svg id="Layer_1" height="512" viewBox="0 0 128 128" width="512" xmlns="http://www.w3.org/2000/svg" data-name="Layer 1"><path d="m86.879 83.659-18.079 7.561-13.523-1.255 12.256-5.839a4.91 4.91 0 0 0 -2.777-9.3l-17.98 2.461a1.743 1.743 0 0 0 -.687.249l-12.966 8.072v-.33a1.75 1.75 0 0 0 -1.75-1.75h-18.794a1.75 1.75 0 1 0 0 3.5h7.647v17.194h-7.647a1.75 1.75 0 1 0 0 3.5h8.98l9.024 4.568a1.75 1.75 0 0 0 2.54-1.562v-3.007h35.286a1.751 1.751 0 0 0 1.011-.321l22-15.551a4.71 4.71 0 0 0 -4.536-8.191zm-57.256 24.223-5.9-2.985v-17.869h5.9zm59.771-18.889-21.54 15.229h-34.731v-14.492l14.5-9.027 17.607-2.403a1.41 1.41 0 0 1 .8 2.67l-18 8.573a1.75 1.75 0 0 0 .591 3.323l20.286 1.883a1.737 1.737 0 0 0 .837-.128l18.484-7.729a1.21 1.21 0 0 1 1.164 2.1z"/><path d="m115.421 56.908h-4.921a37.332 37.332 0 0 0 -29.667-34.741 7.617 7.617 0 0 0 -15.11 0 37.332 37.332 0 0 0 -29.662 34.741h-4.925a1.75 1.75 0 0 0 -1.75 1.75v9.837a1.75 1.75 0 0 0 1.75 1.75h84.285a1.75 1.75 0 0 0 1.75-1.75v-9.837a1.75 1.75 0 0 0 -1.75-1.75zm-42.143-37.887a4.128 4.128 0 0 1 3.815 2.569 37.584 37.584 0 0 0 -7.631 0 4.128 4.128 0 0 1 3.816-2.569zm0 5.875a33.8 33.8 0 0 1 33.717 32.012h-67.433a33.8 33.8 0 0 1 33.716-32.008zm40.393 41.849h-80.785v-6.337h80.785z"/><path d="m60.828 29.876a31.9 31.9 0 0 0 -15.948 14.947 1.75 1.75 0 1 0 3.12 1.577 28.4 28.4 0 0 1 14.2-13.3 1.75 1.75 0 1 0 -1.371-3.22z"/></svg>