<svg id="Layer_1" height="512" viewBox="0 0 128 128" width="512" xmlns="http://www.w3.org/2000/svg" data-name="Layer 1"><path d="m115.421 44.416a1.75 1.75 0 0 0 1.75-1.75v-7.818a1.75 1.75 0 0 0 -1.75-1.75h-5.969l-44.677-22.087a1.746 1.746 0 0 0 -1.551 0l-44.676 22.089h-5.969a1.75 1.75 0 0 0 -1.75 1.75v7.818a1.75 1.75 0 0 0 1.75 1.75h4.627v27.1h-4.627a1.75 1.75 0 0 0 -1.75 1.75v35.523a1.75 1.75 0 0 0 1.75 1.75h6.149v4.879a1.75 1.75 0 0 0 1.75 1.75h5a1.75 1.75 0 0 0 1.75-1.75v-4.879h73.543v4.879a1.75 1.75 0 0 0 1.75 1.75h5a1.75 1.75 0 0 0 1.75-1.75v-4.879h6.149a1.75 1.75 0 0 0 1.75-1.75v-35.522a1.75 1.75 0 0 0 -1.75-1.75h-4.627v-27.1zm-51.421-29.885 37.556 18.569h-75.112zm-49.671 22.069h99.342v4.318h-99.342zm80.352 34.919-3.665-5.742-.009-.011a1.749 1.749 0 0 0 -.271-.321c-.03-.029-.063-.052-.1-.079a1.735 1.735 0 0 0 -.24-.165c-.043-.025-.085-.05-.13-.071a1.733 1.733 0 0 0 -.366-.125c-.031-.006-.063-.007-.094-.012a1.746 1.746 0 0 0 -.269-.027h-21.2a1.749 1.749 0 0 0 -1.606 1.057l-2.371 5.494h-2.114a14.939 14.939 0 0 0 -6.68-10.7 9.167 9.167 0 1 0 -16.245 0 14.94 14.94 0 0 0 -6.68 10.7h-6.891v-27.1h76.5v27.1zm-26.51 0 1.317-3.051h17.392l-1.317 3.051zm21.67-1.079.689 1.079h-1.155zm-42.4-8.189a5.667 5.667 0 1 1 5.666-5.667 5.673 5.673 0 0 1 -5.663 5.666zm-5.921 1.319a9.128 9.128 0 0 0 11.842 0 11.428 11.428 0 0 1 5.353 7.949h-22.545a11.428 11.428 0 0 1 5.353-7.95zm-20.814-19.154h1.544v27.1h-1.544zm92.965 41.834h-99.342v-2.25h99.342zm-89.942 27.421h-1.5v-3.129h1.5zm82.043 0h-1.5v-3.129h1.5zm-91.442-6.629v-17.292h99.342v17.292zm99.341-26.542h-99.342v-5.481h99.342zm-6.377-8.981h-1.544v-27.1h1.544z"/></svg>