<svg id="Layer_1" height="512" viewBox="0 0 128 128" width="512" xmlns="http://www.w3.org/2000/svg" data-name="Layer 1"><path d="m108.25 22.022a1.75 1.75 0 0 0 1.75-1.75v-7.661a1.75 1.75 0 0 0 -1.75-1.75h-88.5a1.75 1.75 0 0 0 -1.75 1.75v7.661a1.75 1.75 0 0 0 1.75 1.75h2v78.863h-2a1.75 1.75 0 0 0 -1.75 1.75v7.665a1.75 1.75 0 0 0 1.75 1.75h2v3.375a1.75 1.75 0 0 0 1.75 1.75h5.125a1.75 1.75 0 0 0 1.75-1.75v-3.375h67.246v3.375a1.75 1.75 0 0 0 1.75 1.75h5.129a1.75 1.75 0 0 0 1.75-1.75v-3.375h2a1.75 1.75 0 0 0 1.75-1.75v-7.661a1.75 1.75 0 0 0 -1.75-1.75h-2v-78.867zm-86.75-7.661h85v4.161h-85zm5.379 99.309h-1.624v-1.625h1.625zm75.866 0h-1.625v-1.625h1.625zm3.755-5.125h-85v-4.161h85zm-3.755-7.661h-77.49v-78.862h77.49z"/><path d="m32.125 53.063h63.75a1.75 1.75 0 0 0 1.75-1.75v-19.806a1.75 1.75 0 0 0 -1.75-1.75h-63.75a1.75 1.75 0 0 0 -1.75 1.75v19.806a1.75 1.75 0 0 0 1.75 1.75zm1.75-19.806h60.25v16.306h-60.25z"/><path d="m88.583 36.368h-49.166a1.75 1.75 0 0 0 0 3.5h49.166a1.75 1.75 0 0 0 0-3.5z"/><path d="m64 42.951h-24.583a1.75 1.75 0 0 0 0 3.5h24.583a1.75 1.75 0 0 0 0-3.5z"/><path d="m32.125 94.243h28.3a1.75 1.75 0 0 0 1.75-1.75v-28.293a1.75 1.75 0 0 0 -1.75-1.75h-28.3a1.75 1.75 0 0 0 -1.75 1.75v28.3a1.75 1.75 0 0 0 1.75 1.743zm1.75-28.3h24.8v24.8h-24.8z"/><path d="m95.875 62.447h-28.3a1.75 1.75 0 0 0 -1.75 1.75v28.3a1.75 1.75 0 0 0 1.75 1.75h28.3a1.75 1.75 0 0 0 1.75-1.75v-28.297a1.75 1.75 0 0 0 -1.75-1.753zm-1.75 28.3h-24.8v-24.8h24.8z"/><path d="m53.211 69.66h-13.875a1.75 1.75 0 0 0 0 3.5h13.875a1.75 1.75 0 0 0 0-3.5z"/><path d="m53.211 76.1h-13.875a1.75 1.75 0 0 0 0 3.5h13.875a1.75 1.75 0 0 0 0-3.5z"/><path d="m53.211 82.347a1.75 1.75 0 0 0 -1.75 1.75v2.479a1.75 1.75 0 0 0 3.5 0v-2.476a1.75 1.75 0 0 0 -1.75-1.753z"/><path d="m74.789 73.16h13.875a1.75 1.75 0 0 0 0-3.5h-13.875a1.75 1.75 0 0 0 0 3.5z"/><path d="m74.789 79.6h13.875a1.75 1.75 0 0 0 0-3.5h-13.875a1.75 1.75 0 0 0 0 3.5z"/><path d="m88.664 82.347a1.75 1.75 0 0 0 -1.75 1.75v2.479a1.75 1.75 0 0 0 3.5 0v-2.476a1.75 1.75 0 0 0 -1.75-1.753z"/></svg>