<svg id="Layer_1" height="512" viewBox="0 0 128 128" width="512" xmlns="http://www.w3.org/2000/svg" data-name="Layer 1"><path d="m47.389 82.731a1.75 1.75 0 0 0 1.75-1.75v-5.167a1.75 1.75 0 0 0 -3.5 0v5.167a1.75 1.75 0 0 0 1.75 1.75z"/><path d="m38.155 80.981v-5.167a1.75 1.75 0 0 0 -3.5 0v5.167a1.75 1.75 0 0 0 3.5 0z"/><path d="m27.171 80.981v-5.167a1.75 1.75 0 0 0 -3.5 0v5.167a1.75 1.75 0 0 0 3.5 0z"/><path d="m43.647 92.628v-5.167a1.75 1.75 0 0 0 -3.5 0v5.167a1.75 1.75 0 0 0 3.5 0z"/><path d="m30.914 94.378a1.75 1.75 0 0 0 1.75-1.75v-5.167a1.75 1.75 0 0 0 -3.5 0v5.167a1.75 1.75 0 0 0 1.75 1.75z"/><path d="m100.829 75.814v5.167a1.75 1.75 0 0 0 3.5 0v-5.167a1.75 1.75 0 0 0 -3.5 0z"/><path d="m89.845 75.814v5.167a1.75 1.75 0 0 0 3.5 0v-5.167a1.75 1.75 0 0 0 -3.5 0z"/><path d="m78.861 75.814v5.167a1.75 1.75 0 0 0 3.5 0v-5.167a1.75 1.75 0 0 0 -3.5 0z"/><path d="m95.336 87.461v5.167a1.75 1.75 0 0 0 3.5 0v-5.167a1.75 1.75 0 0 0 -3.5 0z"/><path d="m84.353 87.461v5.167a1.75 1.75 0 0 0 3.5 0v-5.167a1.75 1.75 0 0 0 -3.5 0z"/><path d="m53.463 25.969a1.749 1.749 0 0 0 -2.263-1 35.637 35.637 0 0 0 -18.682 16.61 1.75 1.75 0 1 0 3.095 1.635 32.136 32.136 0 0 1 16.847-14.983 1.75 1.75 0 0 0 1.003-2.262z"/><path d="m71.252 38.854a7 7 0 1 0 -7-7 7.011 7.011 0 0 0 7 7zm0-10.5a3.5 3.5 0 1 1 -3.5 3.5 3.506 3.506 0 0 1 3.5-3.505z"/><path d="m36.667 50.524a5.75 5.75 0 1 0 5.75 5.75 5.756 5.756 0 0 0 -5.75-5.75zm0 8a2.25 2.25 0 1 1 2.25-2.25 2.253 2.253 0 0 1 -2.25 2.25z"/><path d="m115.42 98.368a1.75 1.75 0 0 0 -1.75 1.75 7.938 7.938 0 0 1 -14.783 4.026 1.75 1.75 0 0 0 -3.014 0 7.927 7.927 0 0 1 -13.677 0 1.75 1.75 0 0 0 -3.014 0 7.99 7.99 0 0 1 -4.465 3.534l-1.532-43.778a101.887 101.887 0 0 1 12.794 3.923c4.715 1.688 8.771 3.143 12.074 3.143a7.413 7.413 0 0 0 4.406-1.263c2.531-1.782 3.71-5.308 3.71-11.1a41.9 41.9 0 0 0 -4.954-19.8 1.741 1.741 0 0 0 -.2-.385 42.414 42.414 0 0 0 -7.215-9.618 1.732 1.732 0 0 0 -.335-.32 42.14 42.14 0 0 0 -71.633 30.125c0 5.789 1.179 9.314 3.71 11.1 3.789 2.667 9.389.66 16.479-1.88a101.887 101.887 0 0 1 12.794-3.925l-1.534 43.779a7.99 7.99 0 0 1 -4.465-3.534 1.75 1.75 0 0 0 -3.014 0 7.927 7.927 0 0 1 -13.677 0 1.75 1.75 0 0 0 -3.014 0 7.938 7.938 0 0 1 -14.783-4.026 1.75 1.75 0 1 0 -3.5 0 11.433 11.433 0 0 0 19.79 7.813 11.406 11.406 0 0 0 16.69 0 11.406 11.406 0 0 0 16.69 0 11.406 11.406 0 0 0 16.69 0 11.406 11.406 0 0 0 16.69 0 11.433 11.433 0 0 0 19.79-7.813 1.75 1.75 0 0 0 -1.748-1.751zm-28.567-33.95a91.578 91.578 0 0 0 -15.144-4.379c-.034-.007-.069-.012-.1-.017q-.49-.085-.983-.161a8.58 8.58 0 0 1 17.129.747 8.5 8.5 0 0 1 -.902 3.81zm5.44-32.131a38.888 38.888 0 0 1 4.945 6.589 4.173 4.173 0 0 1 -1.76.4 4.232 4.232 0 0 1 -4.228-4.228 4.171 4.171 0 0 1 1.043-2.762zm-51.453 32.24c-5.892 2.111-10.979 3.937-13.284 2.313-1.476-1.039-2.225-3.81-2.225-8.234a38.644 38.644 0 0 1 64.469-28.769 7.711 7.711 0 0 0 9.1 12.136 38.433 38.433 0 0 1 3.766 16.633c0 4.425-.749 7.2-2.225 8.234-1.9 1.339-5.7.329-10.281-1.25a11.977 11.977 0 0 0 1.087-4.981 12.081 12.081 0 0 0 -24.108-1.152c-1.037-.08-2.085-.124-3.142-.124a44.59 44.59 0 0 0 -7.6.688c-.035 0-.069.01-.1.017a93.255 93.255 0 0 0 -15.457 4.489zm24.667 39.617a1.75 1.75 0 0 0 -3.014 0 7.993 7.993 0 0 1 -5.72 3.832l1.567-44.716a37.738 37.738 0 0 1 11.32 0l1.567 44.717a7.993 7.993 0 0 1 -5.72-3.832z"/></svg>