<?xml version="1.0"?>
<svg xmlns="http://www.w3.org/2000/svg" id="Layer_1" data-name="Layer 1" viewBox="0 0 128 128" width="512" height="512"><title>NO FOOD</title><path d="M92.452,32.025a1.749,1.749,0,0,0-.127-2.59,44.688,44.688,0,0,0-62.89,62.89,1.749,1.749,0,0,0,1.267.638l.086,0a1.75,1.75,0,0,0,1.237-.513ZM64,43.967a27.04,27.04,0,0,1,4.5.377c.017,0,.033.008.05.009h.02A26.264,26.264,0,0,1,73.729,45.8L50.551,68.978H37.3A26.79,26.79,0,0,1,64,43.967Zm-2.468-3.391a2.962,2.962,0,0,1,4.937,0c-.817-.065-1.639-.11-2.469-.11S62.347,40.51,61.532,40.576Zm-14.481,31.9-4.4,4.4H31.917v-4.4Zm-16.1,16.1a41.188,41.188,0,0,1,57.63-57.63L76.4,43.127a29.839,29.839,0,0,0-6.031-1.982,6.459,6.459,0,0,0-12.741,0,30.316,30.316,0,0,0-23.835,27.83H30.167a1.75,1.75,0,0,0-1.75,1.75v7.9a1.75,1.75,0,0,0,1.75,1.75h8.986Z"/><path d="M41.665,61.814a1.748,1.748,0,0,0,2.351-.772A22.449,22.449,0,0,1,55.24,50.523,1.75,1.75,0,0,0,53.869,47.3,25.957,25.957,0,0,0,40.893,59.464,1.748,1.748,0,0,0,41.665,61.814Z"/><path d="M64,10.829A53.171,53.171,0,1,0,117.171,64,53.231,53.231,0,0,0,64,10.829Zm0,102.842A49.671,49.671,0,1,1,113.671,64,49.727,49.727,0,0,1,64,113.671Z"/><path d="M98.564,35.675a1.749,1.749,0,0,0-1.267-.638,1.8,1.8,0,0,0-1.323.511L35.548,95.975a1.749,1.749,0,0,0,.127,2.59,44.688,44.688,0,0,0,62.89-62.89Zm-34.57,36.8H96.083v4.4H59.6Zm3.5-3.5L83.773,52.7A26.526,26.526,0,0,1,90.7,68.978ZM64,105.189a41.273,41.273,0,0,1-24.579-8.139L56.1,80.375H97.833a1.75,1.75,0,0,0,1.75-1.75v-7.9a1.75,1.75,0,0,0-1.75-1.75H94.205a30,30,0,0,0-7.957-18.754l10.8-10.8A41.188,41.188,0,0,1,64,105.189Z"/></svg>
