<svg id="Layer_1" height="512" viewBox="0 0 128 128" width="512" xmlns="http://www.w3.org/2000/svg" data-name="Layer 1"><path d="m86.044 76.207c-4.52-1.885-9.435-.446-10.958 3.205s.916 8.156 5.436 10.04a10.551 10.551 0 0 0 4.051.829c3.1 0 5.838-1.473 6.906-4.034a6.632 6.632 0 0 0 -.553-5.9 10.1 10.1 0 0 0 -4.882-4.14zm2.205 8.693c-.767 1.838-3.687 2.444-6.38 1.322s-4.319-3.622-3.552-5.463 3.683-2.444 6.383-1.321a6.682 6.682 0 0 1 3.2 2.669 3.221 3.221 0 0 1 .349 2.793z"/><path d="m41.879 36.41a6.633 6.633 0 0 0 -3.779 4.559 10.1 10.1 0 0 0 .522 6.383c1.492 3.625 4.669 5.924 7.754 5.924a5.91 5.91 0 0 0 2.26-.443c3.659-1.505 5.119-6.414 3.256-10.942s-6.351-6.991-10.013-5.481zm5.427 13.19c-1.842.759-4.336-.88-5.446-3.577a6.682 6.682 0 0 1 -.376-4.151 3.222 3.222 0 0 1 1.728-2.223 2.514 2.514 0 0 1 .961-.186c1.67 0 3.56 1.513 4.485 3.763 1.109 2.694.49 5.613-1.352 6.374z"/><path d="m98.565 35.675a1.749 1.749 0 0 0 -2.59-.127l-60.427 60.427a1.749 1.749 0 0 0 .127 2.59 44.688 44.688 0 0 0 62.89-62.89zm-13.428 29.561c-3.114 1.28-6.493.539-7.382-1.619s.991-5.064 4.1-6.346a8.206 8.206 0 0 1 3.1-.629c1.99 0 3.69.81 4.282 2.249a3.7 3.7 0 0 1 -.418 3.3 7.559 7.559 0 0 1 -3.682 3.045zm-22.337 21.19c-1.67 1.67-3.047 2.511-4.012 2.426-1.353-.12-2.788-2.176-4.456-4.552-.288-.412-.585-.835-.891-1.264l14.7-14.7c1.822 5.821-.189 12.939-5.341 18.09zm1.2 18.763a41.274 41.274 0 0 1 -24.579-8.138l11.508-11.508c.179.254.361.511.534.758 2.167 3.1 4.04 5.775 7.021 6.037.151.014.3.02.455.02 1.962 0 3.99-1.11 6.337-3.458 6.558-6.558 8.745-15.943 5.58-23.284l3.193-3.193a6.4 6.4 0 0 0 .47 2.526c1.153 2.8 4.149 4.414 7.548 4.414a11.607 11.607 0 0 0 4.4-.889 11.07 11.07 0 0 0 5.374-4.516 7.11 7.11 0 0 0 .634-6.4c-1.347-3.273-5.212-4.918-9.295-4.268l13.871-13.869a41.189 41.189 0 0 1 -33.051 65.768z"/><path d="m64 10.83a53.17 53.17 0 1 0 53.17 53.17 53.231 53.231 0 0 0 -53.17-53.17zm0 102.84a49.67 49.67 0 1 1 49.67-49.67 49.727 49.727 0 0 1 -49.67 49.67z"/><path d="m92.963 30.7a1.751 1.751 0 0 0 -.638-1.267 44.688 44.688 0 0 0 -62.89 62.89 1.751 1.751 0 0 0 1.267.638h.086a1.749 1.749 0 0 0 1.237-.513l60.427-60.423a1.75 1.75 0 0 0 .511-1.325zm-49.263 42.968c-2.381-1.665-4.437-3.1-4.556-4.458-.083-.954.755-2.341 2.426-4.012 5.152-5.151 12.268-7.162 18.095-5.339l-14.7 14.7c-.426-.306-.849-.602-1.265-.891zm23.951-23.926a3.709 3.709 0 0 1 -3.3.4c-2.154-.9-2.88-4.282-1.585-7.389 1.075-2.577 3.263-4.3 5.208-4.3a2.983 2.983 0 0 1 1.157.226 3.7 3.7 0 0 1 2.035 2.626 8.077 8.077 0 0 1 -3.516 8.434zm7.049-4.916a10.443 10.443 0 0 0 -.148-4.4 7.111 7.111 0 0 0 -4.075-4.973c-3.973-1.657-8.881 1.016-10.942 5.958s-.5 10.31 3.469 11.966a6.51 6.51 0 0 0 2.518.5c.045 0 .091-.009.137-.01l-3.276 3.276c-7.341-3.166-16.725-.979-23.284 5.58-2.53 2.53-3.623 4.688-3.437 6.792.261 2.981 2.938 4.853 6.037 7.021.247.173.5.355.758.534l-11.508 11.509a41.189 41.189 0 0 1 57.63-57.63z"/></svg>